<?xml version="1.0" encoding="utf-8"?>
<!-- Generator: Adobe Illustrator 17.0.0, SVG Export Plug-In . SVG Version: 6.00 Build 0)  -->
<!DOCTYPE svg PUBLIC "-//W3C//DTD SVG 1.1//EN" "http://www.w3.org/Graphics/SVG/1.1/DTD/svg11.dtd">
<svg version="1.1" id="Layer_1" xmlns="http://www.w3.org/2000/svg" xmlns:xlink="http://www.w3.org/1999/xlink" x="0px" y="0px"
	 width="155.945px" height="150.721px" viewBox="-0.001 0.002 155.945 150.721"
	 enable-background="new -0.001 0.002 155.945 150.721" xml:space="preserve">
<path fill="#FFFFFF" d="M98.349,136.89c-0.07-0.068-0.142-0.136-0.232-0.179c-1.451-0.705-2.439-1.901-2.93-3.557
	c-0.855-2.872-0.013-6.526,1.269-8.665l56.6-98.054c3.337-5.858,3.799-11.451,1.302-15.745c-2.052-3.531-5.92-5.639-10.345-5.639
	c-7.928,0-16.054,4.867-24.749,14.847c0.711-3.511,0.231-6.768-1.448-9.469c-2.095-3.367-5.874-5.378-10.112-5.378
	c-5.327,0-10.698,2.166-16.228,6.554c0.718-1.73,0.533-4.009-1.581-7.134c-5.639-8.338-12.758-2.453-12.758-2.453
	c-12.454,9.868-26.589,13.475-39.06,16.657c-14.699,3.75-27.395,6.99-34.23,18.891C-0.131,44.51-1.029,51.2,1.174,57.449
	c2.719,7.712,9.632,12.786,15.195,14.964c0.082,0.032,0.166,0.04,0.249,0.048c0.999,0.568,2.147,0.916,3.389,0.916
	c3.718,0,6.732-2.918,6.732-6.518c0-2.486-1.454-4.621-3.568-5.721c-0.099-0.129-0.218-0.241-0.372-0.304
	c-0.055-0.022-5.367-2.254-6.989-7.063c-0.984-2.918-0.411-6.226,1.706-9.838c4.152-7.178,15.435-10.166,27.382-13.327
	c6.516-1.725,13.226-3.501,19.064-6.054l-49.576,86.064c-0.283,0.433-0.742,1.177-1.209,2.098l-0.066,0.114
	c-0.009,0.016-0.005,0.035-0.014,0.051c-1.578,3.184-3.077,8.264,2.349,9.849c6.232,1.821,11.585-4.046,14.709-8.671
	c0.118-0.079,0.227-0.173,0.299-0.3l1.135-1.978c0.173-0.295,0.334-0.575,0.479-0.835l34.789-60.613
	c16.848-23.394,28.284-31.695,32.957-31.695c1.062,0,1.344,0.488,1.437,0.649c0.513,0.886,0.373,3.025-1.557,6.369L50.13,111.595
	c0,0-7.315,10.164,0.778,12.529c9.926,2.9,17.623-13.703,17.633-13.725L102.14,51.81l0.151-0.163
	c18.48-26.079,29.976-33.038,33.853-33.038c1.068,0,1.351,0.491,1.444,0.653c0.513,0.891,0.366,3.038-1.584,6.392l-52.628,91.435
	c-3.832,6.662-4.943,14.09-3.048,20.38c1.292,4.292,3.964,7.844,7.762,10.448l-0.051-0.005c0,0,6.094,5.439,11.177,1.184
	l-0.04-0.004c1.821-1.346,3.014-3.449,3.014-5.838C102.19,140.521,100.633,138.162,98.349,136.89z"/>
</svg>
