<?xml version="1.0" encoding="utf-8"?>
<!-- Generator: Adobe Illustrator 17.0.0, SVG Export Plug-In . SVG Version: 6.00 Build 0)  -->
<!DOCTYPE svg PUBLIC "-//W3C//DTD SVG 1.1//EN" "http://www.w3.org/Graphics/SVG/1.1/DTD/svg11.dtd">
<svg version="1.1" id="Layer_1" xmlns="http://www.w3.org/2000/svg" xmlns:xlink="http://www.w3.org/1999/xlink" x="0px" y="0px"
	 width="97.405px" height="60.749px" viewBox="0 0 97.405 60.749" enable-background="new 0 0 97.405 60.749" xml:space="preserve">
<path d="M97.277,26.303c-0.197-0.561-0.603-1.012-1.138-1.268c-1.08-0.515-2.459-0.021-2.969,1.041
	c-0.03,0.062-3.089,6.146-9.491,6.154c-0.213,0-0.416-0.01-0.608-0.03c3.053-1.601,4.95-3.667,5.651-6.162
	c0.845-3.007-0.315-6.744-4.166-8.067c-0.672-0.231-1.383-0.348-2.111-0.348c-2.479,0-4.583,1.302-5.771,3.571
	c-1.074,2.049-1.709,5.726-0.987,8.952c-0.493,0.119-0.962,0.22-1.389,0.305c-0.001-0.053-0.003-0.106-0.005-0.159
	c-0.194-4.846-5.274-12.432-5.854-13.283c-0.417-0.607-1.104-0.969-1.841-0.969l-0.147,0.005c-0.783,0.053-1.488,0.521-1.841,1.223
	c-1.824,3.633-5.211,9.015-7.656,10.892l1.23-7.935c0.188-1.213-0.646-2.354-1.861-2.542c-1.252-0.194-2.355,0.658-2.541,1.86
	l-1.534,9.895c-0.012,0.069-0.05,0.257-0.129,0.506c-0.053,0.112-0.096,0.229-0.129,0.351c-0.53,1.292-1.451,1.946-2.739,1.946
	c0,0,0,0-0.001,0c-0.07,0-0.141-0.001-0.214-0.005c-0.803-0.042-1.395-0.286-1.81-0.748c-0.576-0.641-0.696-1.53-0.696-1.703
	c0.038-0.701,0.666-4.875,0.897-6.251c0.452-2.699-1.013-4.945-3.645-5.589c-0.301-0.074-0.614-0.119-0.934-0.133
	c0.9-5.897,1.034-6.965,1.053-7.231c0.002-0.036,0.213-3.606-2.041-5.994c-0.907-0.961-2.795-2.96-6.511-2.997
	c-1.365,0-2.854,0.479-3.715,0.889c-0.992,0.473-1.854,1.136-2.575,1.98c-1.158-1.225-3.292-2.87-6.396-2.87
	c-2.833,0-4.906,1.626-5.473,2.125c-0.125,0.11-0.248,0.224-0.367,0.343C15.199,1.428,12.566,0,9.279,0
	C6.532,0,4.189,0.974,2.505,2.816C0.571,4.931-0.138,7.82,0.022,9.609c0.108,1.205,1.213,2.13,2.417,2.02
	c0.592-0.053,1.128-0.334,1.51-0.79c0.381-0.457,0.563-1.035,0.509-1.626c-0.041-0.451,0.209-2.162,1.333-3.39
	c0.83-0.908,2.003-1.368,3.487-1.368c2.022,0,3.286,0.799,4.1,2.59c0.591,1.302,0.692,2.692,0.708,3.033
	c-1.244,11.929-3.056,23.426-3.883,24.625c-0.697,1.011-0.442,2.4,0.569,3.098c0.978,0.675,2.424,0.406,3.098-0.569
	c0.48-0.696,1.479-2.146,3.22-14.891c0.816-5.976,1.417-11.705,1.442-11.945l0.007-0.064c0.04-0.3,0.336-2.173,1.591-3.274
	c0.118-0.104,1.193-1.016,2.534-1.016c2.034,0,3.271,1.539,3.631,2.053c0.17,0.241,0.568,0.804,0.494,1.91
	c-0.228,2.694-2.982,23.81-3.7,25.375c-0.607,1.039-0.265,2.395,0.76,3.022c1.018,0.623,2.442,0.279,3.063-0.737
	c0.362-0.591,0.908-1.484,2.683-14.424c0.75-5.469,1.463-11.288,1.613-12.706l0.023-0.199c0.002-0.029,0.28-2.866,2.317-3.836
	c0.564-0.269,1.39-0.456,1.786-0.456c0,0,0.001,0,0.001,0c1.789,0.018,2.549,0.822,3.284,1.601c0.698,0.739,0.854,2.257,0.837,2.61
	c-0.018,0.237-0.262,2.028-1.702,11.354l-0.01,0.064c-1.132,7.333-2.615,16.803-3.784,24.225l-0.051,0.328
	c-0.31,1.983-0.955,6.11,1.591,9.689c1.955,2.748,4.516,4.298,7.83,4.741c0.47,0.063,0.95,0.095,1.425,0.095
	c2.769,0,5.433-1.064,7.502-2.998c2.377-2.221,3.68-5.332,3.486-8.32c-0.076-1.167-1.053-2.083-2.225-2.083l-0.144,0.004
	c-1.226,0.081-2.158,1.143-2.078,2.368c0.11,1.67-0.668,3.455-2.082,4.775c-1.451,1.355-3.373,1.998-5.295,1.742
	c-2.079-0.278-3.557-1.175-4.79-2.908c-1.494-2.101-1.055-4.91-0.816-6.441l0.049-0.319c0.34-2.156,2.297-14.586,3.793-24.196
	c0.11-0.072,0.281-0.117,0.445-0.117c0.074,0,0.114,0.009,0.117,0.01c0.352,0.086,0.382,0.106,0.311,0.528
	c-0.073,0.439-0.887,5.562-0.951,6.743c-0.056,1.01,0.267,3.184,1.831,4.924c1.211,1.348,2.904,2.116,4.892,2.218
	c2.758,0.146,5-0.988,6.478-3.167c0.791-0.059,1.699-0.331,2.766-0.826c0.818-0.381,1.644-0.981,2.454-1.723
	c0.062,0.95,0.339,1.945,0.782,2.777c1.224,2.299,3.511,3.681,6.154,3.697c1.811,0,3.68-0.822,4.973-2.167
	c0.96-0.12,2.994-0.422,5.292-1.043c1.109,1.221,2.976,2.456,5.989,2.456c9.245-0.012,13.325-8.326,13.493-8.679
	C97.443,27.469,97.475,26.864,97.277,26.303z M80.619,23.262c0.411-0.785,1.025-1.183,1.824-1.183c0.316,0,0.554,0.065,0.666,0.104
	c1.796,0.617,1.418,2.316,1.324,2.65c-0.499,1.778-2.533,3.066-4.476,3.917C79.641,26.801,79.991,24.46,80.619,23.262z
	 M69.843,30.47c0.018,0.442-0.13,0.973-0.383,1.386c-0.402,0.654-1.252,1.129-2.031,1.129c-1.311-0.008-1.949-0.84-2.213-1.335
	c-0.243-0.458-0.283-0.961-0.271-1.164c0.073-1.145,1.037-1.532,1.648-1.67c1.183-0.284,1.919-1.481,1.642-2.67
	c-0.236-1.012-1.131-1.72-2.175-1.72c-0.143,0-0.286,0.014-0.427,0.042c0.389-0.615,0.753-1.216,1.086-1.784
	C68.629,26.02,69.778,28.866,69.843,30.47z"/>
</svg>
