<?xml version="1.0" encoding="utf-8"?>
<!-- Generator: Adobe Illustrator 17.0.0, SVG Export Plug-In . SVG Version: 6.00 Build 0)  -->
<!DOCTYPE svg PUBLIC "-//W3C//DTD SVG 1.1//EN" "http://www.w3.org/Graphics/SVG/1.1/DTD/svg11.dtd">
<svg version="1.1" id="Layer_1" xmlns="http://www.w3.org/2000/svg" xmlns:xlink="http://www.w3.org/1999/xlink" x="0px" y="0px"
	 width="473.909px" height="169.141px" viewBox="0 0 473.909 169.141" enable-background="new 0 0 473.909 169.141"
	 xml:space="preserve">
<g>
	<g>
		<path fill="#F68F57" d="M98.349,136.89c-0.07-0.068-0.142-0.136-0.232-0.179c-1.451-0.705-2.439-1.901-2.93-3.557
			c-0.855-2.872-0.013-6.526,1.269-8.665l56.6-98.054c3.337-5.858,3.799-11.451,1.302-15.745c-2.052-3.531-5.92-5.639-10.345-5.639
			c-7.928,0-16.054,4.867-24.749,14.847c0.711-3.511,0.231-6.768-1.448-9.469c-2.095-3.367-5.874-5.378-10.112-5.378
			c-5.327,0-10.698,2.166-16.228,6.554c0.718-1.73,0.533-4.009-1.581-7.134c-5.639-8.338-12.758-2.453-12.758-2.453
			c-12.454,9.868-26.589,13.475-39.06,16.657c-14.699,3.75-27.395,6.99-34.23,18.891C-0.131,44.51-1.029,51.2,1.174,57.449
			c2.719,7.712,9.632,12.786,15.195,14.964c0.082,0.032,0.166,0.04,0.249,0.048c0.999,0.568,2.147,0.916,3.389,0.916
			c3.718,0,6.732-2.918,6.732-6.518c0-2.486-1.454-4.621-3.568-5.721c-0.099-0.129-0.218-0.241-0.372-0.304
			c-0.055-0.022-5.367-2.254-6.989-7.063c-0.984-2.918-0.411-6.226,1.706-9.838c4.152-7.178,15.435-10.166,27.382-13.327
			c6.516-1.725,13.226-3.501,19.064-6.054l-49.576,86.064c-0.283,0.433-0.742,1.177-1.209,2.098l-0.066,0.114
			c-0.009,0.016-0.005,0.035-0.014,0.051c-1.578,3.184-3.077,8.264,2.349,9.849c6.232,1.821,11.585-4.046,14.709-8.671
			c0.118-0.079,0.227-0.173,0.299-0.3l1.135-1.978c0.173-0.295,0.334-0.575,0.479-0.835l34.789-60.613
			c16.848-23.394,28.284-31.695,32.957-31.695c1.062,0,1.344,0.488,1.437,0.649c0.513,0.886,0.373,3.025-1.557,6.369L50.13,111.595
			c0,0-7.315,10.164,0.778,12.529c9.926,2.9,17.623-13.703,17.633-13.725L102.14,51.81l0.151-0.163
			c18.48-26.079,29.976-33.038,33.853-33.038c1.068,0,1.351,0.491,1.444,0.653c0.513,0.891,0.366,3.038-1.584,6.392l-52.628,91.435
			c-3.832,6.662-4.943,14.09-3.048,20.38c1.292,4.292,3.964,7.844,7.762,10.448l-0.051-0.005c0,0,6.094,5.439,11.177,1.184
			l-0.04-0.004c1.821-1.346,3.014-3.449,3.014-5.838C102.19,140.521,100.633,138.162,98.349,136.89z"/>
		<path fill="#F68F57" d="M320.672,79.224c-1.309,0-2.492,0.519-3.367,1.354c-0.028,0.025-0.068,0.027-0.093,0.055l-1.031,1.18
			c-11.84,13.735-25.642,22.61-35.163,22.61c-4.518,0-7.817-1.396-9.288-3.931c-1.719-2.964-0.973-7.426,2.164-12.915l1.073-1.932
			c2.728,1.014,5.867,1.547,9.134,1.547c5.894,0,20.722-1.938,31.094-19.887l2.201-3.818c4.01-6.876,4.6-13.482,1.659-18.603
			c-2.695-4.693-8.177-7.495-14.664-7.495c-12.424,0-22.614,6.261-29.468,18.102l-14.77,25.34l-0.865,0.988
			c-4.521,5.354-10.247,10.672-15.988,14.884c1.437-5.239,2.31-11.29,3.228-17.641c1.646-11.403,3.512-24.329,9.164-36.076
			c0.005-0.01,0.003-0.02,0.008-0.029c7.004-9.717,1.205-13.622-4.821-13.47c-4.919,0.124-8.949,6.697-10.352,9.293
			c-0.634,0.883-1.307,1.822-2.028,2.829c-7.362,10.282-18.489,25.822-29.776,39.031c0,0.001,0,0.002-0.001,0.002l-1.025,1.17
			c-12.933,15.003-22.29,22.61-27.813,22.61c-0.86,0-1.984-0.174-2.457-1c-0.371-0.646-0.668-2.281,1.502-5.986l30.101-52.745
			c7.58-10.09,1.654-14.12-4.477-13.965c-6.13,0.155-10.89,10.339-10.89,10.339l-26.127,45.617
			c-10.312,9.384-18.46,14.984-21.808,14.984c-0.246,0-0.446-0.035-0.615-0.111c-0.686-0.29-0.882-0.687-0.971-0.959
			c-0.582-1.787,1.495-5.247,2.868-7.537l28.49-49.653c7.526-10.056,1.612-14.074-4.508-13.919
			c-6.13,0.155-10.89,10.339-10.89,10.339l0.015,0.004l-29.699,51.388c-4.519,7.847-5.58,14.999-2.908,19.622
			c1.808,3.129,5.216,4.852,9.596,4.852c8.341,0,17.358-7.109,23.956-13.233c-0.089,3.316,0.866,6.304,2.779,8.59
			c2.544,3.037,6.515,4.643,11.485,4.643c7.518,0,16.261-4.573,26.478-13.869c0.038,0.129,0.077,0.262,0.115,0.387
			c-0.03,0.132-0.042,0.269-0.01,0.408c0.008,0.038,0.287,1.158,1.008,2.711c0.005,0.013,0.016,0.047,0.016,0.047l0.005-0.001
			c1.791,3.834,6.333,10.317,16.637,10.317c1.38,0,2.632-0.125,3.954-0.257l0.309-0.035c0.293,0,0.517-0.112,0.564-0.156
			c11.552-1.526,22.226-8.341,30.601-15.547c0.324,2.255,0.994,4.403,2.112,6.354c3.514,6.127,10.565,9.642,19.349,9.642
			c20.032,0,38.201-17.385,47.492-28.091c0.968-0.883,1.586-2.139,1.586-3.548C325.538,81.387,323.36,79.224,320.672,79.224z
			 M289.613,60.252c3.883-6.666,9.05-9.65,12.447-9.65c1.068,0,2.504,0.289,3.303,1.667c1.222,2.112,0.467,5.861-2.072,10.284
			l-2.202,3.816c-5.232,8.894-11.6,10.762-16.021,10.762c-1.564-0.001-3.181-0.234-4.73-0.68L289.613,60.252z M232.031,77.199
			c-1.853,12.79-3.603,24.872-12.46,24.872c-4.419,0-6.253-4.775-6.329-4.979c-0.089-0.24-0.277-0.428-0.514-0.528
			c-0.657-1.361-1.218-2.786-1.662-4.031c1.572-1.709,3.167-3.486,4.803-5.388c0.001-0.001,0.001-0.002,0.001-0.003
			c6.877-7.927,13.098-16.3,18.098-23.027c0.167-0.227,0.335-0.452,0.5-0.675C233.399,67.755,232.708,72.533,232.031,77.199z"/>
	</g>
</g>
<path fill="#F68F57" d="M133.095,159.858c0.94,0,1.76-0.08,2.459-0.24v1.2c-0.72,0.24-1.55,0.36-2.489,0.36
	c-1.44,0-2.502-0.385-3.187-1.155s-1.027-1.979-1.027-3.629v-10.528h-2.415v-0.87l2.415-0.675l0.75-3.689h0.765v3.944h4.784v1.29
	h-4.784v10.318c0,1.25,0.22,2.175,0.66,2.775C131.465,159.558,132.155,159.858,133.095,159.858z"/>
<path fill="#F68F57" d="M150.447,160.878v-10.573c0-1.64-0.345-2.832-1.035-3.577c-0.689-0.745-1.76-1.117-3.209-1.117
	c-1.949,0-3.377,0.492-4.282,1.477s-1.357,2.582-1.357,4.792v8.999h-1.485v-23.336h1.485v7.424l-0.075,2.084h0.105
	c0.61-0.979,1.38-1.689,2.31-2.129s2.085-0.66,3.464-0.66c3.699,0,5.549,1.985,5.549,5.954v10.663L150.447,160.878L150.447,160.878z
	"/>
<path fill="#F68F57" d="M163.78,161.177c-2.37,0-4.217-0.729-5.542-2.189c-1.325-1.459-1.987-3.504-1.987-6.134
	c0-2.6,0.64-4.682,1.919-6.247c1.28-1.564,3.004-2.347,5.174-2.347c1.919,0,3.435,0.67,4.544,2.01
	c1.109,1.34,1.665,3.16,1.665,5.459v1.2H157.81c0.02,2.24,0.542,3.95,1.567,5.129s2.492,1.77,4.402,1.77
	c0.93,0,1.747-0.065,2.452-0.195s1.597-0.41,2.677-0.84v1.35c-0.92,0.4-1.77,0.672-2.549,0.817
	C165.579,161.105,164.719,161.177,163.78,161.177z M163.345,145.58c-1.57,0-2.83,0.518-3.779,1.552
	c-0.95,1.035-1.505,2.527-1.665,4.477h10.078c0-1.89-0.41-3.367-1.23-4.432C165.929,146.113,164.794,145.58,163.345,145.58z"/>
<path fill="#F68F57" d="M188.001,144.26c1.18,0,2.2,0.215,3.06,0.645c0.86,0.43,1.63,1.165,2.31,2.205h0.09
	c-0.06-1.26-0.09-2.495-0.09-3.704v-5.864h1.47v23.336h-0.975l-0.375-2.49h-0.12c-1.24,1.86-3.02,2.79-5.339,2.79
	c-2.25,0-3.969-0.7-5.159-2.1c-1.19-1.399-1.785-3.439-1.785-6.119c0-2.82,0.59-4.974,1.77-6.464S185.751,144.26,188.001,144.26z
	 M188.001,145.61c-1.78,0-3.117,0.625-4.012,1.875c-0.895,1.25-1.342,3.064-1.342,5.444c0,4.619,1.795,6.929,5.384,6.929
	c1.839,0,3.189-0.535,4.049-1.604s1.29-2.834,1.29-5.294v-0.255c0-2.52-0.422-4.332-1.267-5.437
	C191.257,146.163,189.89,145.61,188.001,145.61z"/>
<path fill="#F68F57" d="M200.104,140.046c0-0.959,0.315-1.439,0.945-1.439c0.31,0,0.552,0.125,0.728,0.375
	c0.175,0.25,0.262,0.605,0.262,1.064c0,0.45-0.087,0.805-0.262,1.065c-0.175,0.26-0.417,0.39-0.728,0.39
	C200.418,141.501,200.104,141.016,200.104,140.046z M201.798,160.878h-1.485v-16.302h1.485V160.878z"/>
<path fill="#F68F57" d="M217.365,156.633c0,1.46-0.555,2.582-1.665,3.367s-2.685,1.177-4.724,1.177c-2.18,0-3.909-0.335-5.189-1.005
	v-1.604c1.64,0.82,3.369,1.23,5.189,1.23c1.61,0,2.832-0.268,3.667-0.803c0.834-0.535,1.252-1.247,1.252-2.137
	c0-0.819-0.333-1.509-0.998-2.069s-1.757-1.11-3.277-1.65c-1.63-0.59-2.774-1.097-3.435-1.522c-0.66-0.425-1.157-0.905-1.492-1.44
	s-0.502-1.187-0.502-1.957c0-1.22,0.512-2.185,1.538-2.895c1.024-0.71,2.457-1.065,4.296-1.065c1.76,0,3.429,0.33,5.009,0.99
	l-0.555,1.35c-1.6-0.66-3.085-0.99-4.455-0.99c-1.33,0-2.384,0.22-3.164,0.66s-1.17,1.05-1.17,1.83c0,0.85,0.302,1.53,0.907,2.04
	s1.787,1.08,3.547,1.71c1.47,0.53,2.54,1.007,3.209,1.432c0.67,0.425,1.172,0.907,1.507,1.447
	C217.198,155.269,217.365,155.903,217.365,156.633z"/>
<path fill="#F68F57" d="M225.869,159.858c0.94,0,1.76-0.08,2.459-0.24v1.2c-0.72,0.24-1.55,0.36-2.489,0.36
	c-1.44,0-2.502-0.385-3.187-1.155s-1.027-1.979-1.027-3.629v-10.528h-2.415v-0.87l2.415-0.675l0.75-3.689h0.765v3.944h4.784v1.29
	h-4.784v10.318c0,1.25,0.22,2.175,0.66,2.775C224.239,159.558,224.929,159.858,225.869,159.858z"/>
<path fill="#F68F57" d="M238.272,144.26c0.69,0,1.43,0.07,2.22,0.21l-0.285,1.425c-0.68-0.17-1.385-0.255-2.115-0.255
	c-1.39,0-2.529,0.59-3.419,1.77c-0.89,1.18-1.334,2.67-1.334,4.469v8.999h-1.485v-16.302h1.26l0.15,2.939h0.105
	c0.67-1.2,1.385-2.042,2.145-2.527S237.191,144.26,238.272,144.26z"/>
<path fill="#F68F57" d="M257.146,161.177c-2.33,0-4.154-0.735-5.474-2.205c-1.32-1.47-1.979-3.519-1.979-6.149
	c0-2.699,0.685-4.801,2.055-6.306s3.244-2.257,5.624-2.257c1.41,0,2.76,0.245,4.05,0.735l-0.405,1.32
	c-1.409-0.47-2.635-0.705-3.674-0.705c-2,0-3.515,0.617-4.544,1.852c-1.029,1.235-1.545,3.012-1.545,5.332
	c0,2.2,0.515,3.922,1.545,5.167s2.469,1.867,4.319,1.867c1.479,0,2.854-0.265,4.125-0.795v1.38
	C260.201,160.922,258.836,161.177,257.146,161.177z"/>
<path fill="#F68F57" d="M243.76,140.046c0-0.959,0.315-1.439,0.945-1.439c0.31,0,0.552,0.125,0.727,0.375s0.263,0.605,0.263,1.064
	c0,0.45-0.088,0.805-0.263,1.065c-0.175,0.26-0.417,0.39-0.727,0.39C244.076,141.501,243.76,141.016,243.76,140.046z
	 M245.454,160.878h-1.484v-16.302h1.484V160.878z"/>
<path fill="#F68F57" d="M269.647,159.858c0.939,0,1.759-0.08,2.459-0.24v1.2c-0.72,0.24-1.55,0.36-2.489,0.36
	c-1.439,0-2.502-0.385-3.188-1.155c-0.685-0.77-1.027-1.979-1.027-3.629v-10.528h-2.414v-0.87l2.414-0.675l0.75-3.689h0.766v3.944
	h4.784v1.29h-4.784v10.318c0,1.25,0.22,2.175,0.659,2.775C268.017,159.558,268.706,159.858,269.647,159.858z"/>
<path fill="#F68F57" d="M283.398,140.046c0-0.959,0.315-1.439,0.945-1.439c0.31,0,0.552,0.125,0.727,0.375s0.263,0.605,0.263,1.064
	c0,0.45-0.088,0.805-0.263,1.065c-0.175,0.26-0.417,0.39-0.727,0.39C283.714,141.501,283.398,141.016,283.398,140.046z
	 M285.093,160.878h-1.484v-16.302h1.484V160.878z"/>
<path fill="#F68F57" d="M300.66,156.633c0,1.46-0.555,2.582-1.665,3.367c-1.109,0.785-2.685,1.177-4.724,1.177
	c-2.18,0-3.91-0.335-5.189-1.005v-1.604c1.64,0.82,3.369,1.23,5.189,1.23c1.609,0,2.832-0.268,3.666-0.803
	c0.835-0.535,1.253-1.247,1.253-2.137c0-0.819-0.333-1.509-0.997-2.069c-0.665-0.56-1.758-1.11-3.277-1.65
	c-1.63-0.59-2.774-1.097-3.435-1.522s-1.157-0.905-1.492-1.44s-0.502-1.187-0.502-1.957c0-1.22,0.512-2.185,1.537-2.895
	c1.024-0.71,2.457-1.065,4.297-1.065c1.759,0,3.429,0.33,5.009,0.99l-0.555,1.35c-1.6-0.66-3.085-0.99-4.454-0.99
	c-1.33,0-2.385,0.22-3.165,0.66c-0.779,0.44-1.17,1.05-1.17,1.83c0,0.85,0.303,1.53,0.908,2.04c0.604,0.51,1.786,1.08,3.546,1.71
	c1.471,0.53,2.54,1.007,3.21,1.432c0.67,0.425,1.172,0.907,1.507,1.447S300.66,155.903,300.66,156.633z"/>
<path fill="#F68F57" d="M310.108,144.575h1.529l3.45,9.148c1.05,2.81,1.714,4.704,1.994,5.684h0.09
	c0.42-1.29,1.104-3.214,2.055-5.774l3.449-9.059h1.53l-7.304,18.942c-0.59,1.54-1.085,2.58-1.485,3.119
	c-0.399,0.54-0.867,0.945-1.401,1.215c-0.535,0.27-1.183,0.405-1.942,0.405c-0.57,0-1.205-0.105-1.905-0.315v-1.29
	c0.58,0.16,1.205,0.24,1.875,0.24c0.51,0,0.96-0.12,1.35-0.36c0.391-0.24,0.742-0.612,1.058-1.117
	c0.314-0.505,0.68-1.305,1.095-2.399s0.683-1.807,0.803-2.137L310.108,144.575z"/>
<path fill="#F68F57" d="M340.418,152.704c0,2.66-0.645,4.737-1.935,6.231c-1.29,1.495-3.069,2.242-5.339,2.242
	c-1.43,0-2.689-0.345-3.779-1.035s-1.925-1.68-2.505-2.969c-0.58-1.29-0.869-2.78-0.869-4.469c0-2.66,0.645-4.732,1.935-6.217
	c1.289-1.484,3.059-2.227,5.309-2.227c2.239,0,3.997,0.752,5.271,2.257C339.781,148.023,340.418,150.085,340.418,152.704z
	 M327.551,152.704c0,2.24,0.492,3.987,1.477,5.241c0.985,1.255,2.377,1.882,4.177,1.882s3.192-0.627,4.177-1.882
	c0.985-1.254,1.478-3.001,1.478-5.241c0-2.25-0.497-3.995-1.492-5.234s-2.392-1.859-4.191-1.859s-3.188,0.617-4.162,1.852
	S327.551,150.444,327.551,152.704z"/>
<path fill="#F68F57" d="M346.223,144.575v10.558c0,1.64,0.345,2.833,1.034,3.577c0.69,0.745,1.76,1.117,3.21,1.117
	c1.939,0,3.367-0.49,4.281-1.47c0.915-0.98,1.373-2.574,1.373-4.784v-8.999h1.47v16.302h-1.26l-0.271-2.25h-0.09
	c-1.06,1.7-2.944,2.549-5.654,2.549c-3.709,0-5.563-1.984-5.563-5.954v-10.648h1.47V144.575z"/>
<path fill="#F68F57" d="M369.468,144.26c0.689,0,1.43,0.07,2.22,0.21l-0.285,1.425c-0.68-0.17-1.385-0.255-2.114-0.255
	c-1.391,0-2.53,0.59-3.42,1.77c-0.89,1.18-1.335,2.67-1.335,4.469v8.999h-1.484v-16.302h1.26l0.15,2.939h0.104
	c0.67-1.2,1.385-2.042,2.145-2.527S368.388,144.26,369.468,144.26z"/>
<path fill="#F68F57" d="M389.489,161.177c-2.33,0-4.154-0.735-5.474-2.205s-1.979-3.519-1.979-6.149
	c0-2.699,0.685-4.801,2.054-6.306c1.37-1.505,3.245-2.257,5.624-2.257c1.41,0,2.76,0.245,4.05,0.735l-0.405,1.32
	c-1.409-0.47-2.635-0.705-3.674-0.705c-2,0-3.515,0.617-4.545,1.852c-1.029,1.235-1.544,3.012-1.544,5.332
	c0,2.2,0.515,3.922,1.544,5.167c1.03,1.245,2.47,1.867,4.319,1.867c1.479,0,2.854-0.265,4.125-0.795v1.38
	C392.544,160.922,391.179,161.177,389.489,161.177z"/>
<path fill="#F68F57" d="M407.472,160.878l-0.375-2.58h-0.12c-0.82,1.05-1.662,1.792-2.527,2.227
	c-0.864,0.435-1.887,0.652-3.066,0.652c-1.6,0-2.845-0.41-3.734-1.229c-0.891-0.82-1.335-1.955-1.335-3.405
	c0-1.589,0.662-2.824,1.987-3.704c1.324-0.88,3.241-1.345,5.751-1.395l3.104-0.09v-1.08c0-1.55-0.314-2.72-0.944-3.509
	c-0.63-0.79-1.645-1.185-3.045-1.185c-1.51,0-3.074,0.42-4.694,1.26l-0.555-1.29c1.79-0.84,3.56-1.26,5.31-1.26
	c1.789,0,3.127,0.465,4.012,1.395s1.327,2.38,1.327,4.349v10.843L407.472,160.878L407.472,160.878z M401.473,159.828
	c1.739,0,3.112-0.497,4.116-1.492c1.005-0.995,1.508-2.377,1.508-4.147v-1.604l-2.85,0.12c-2.29,0.11-3.922,0.467-4.896,1.072
	s-1.462,1.547-1.462,2.827c0,1.02,0.312,1.812,0.937,2.377S400.333,159.828,401.473,159.828z"/>
<path fill="#F68F57" d="M425.214,160.878v-10.573c0-1.64-0.345-2.832-1.035-3.577c-0.689-0.745-1.76-1.117-3.209-1.117
	c-1.95,0-3.377,0.492-4.282,1.477c-0.904,0.985-1.357,2.582-1.357,4.792v8.999h-1.484v-16.302h1.26l0.285,2.235h0.09
	c1.06-1.7,2.944-2.55,5.654-2.55c3.699,0,5.549,1.985,5.549,5.954v10.663L425.214,160.878L425.214,160.878z"/>
<path fill="#F68F57" d="M435.531,160.878l-6.299-16.302h1.529l4.215,11.083c0.56,1.42,0.979,2.66,1.26,3.72h0.09
	c0.41-1.36,0.83-2.61,1.26-3.75l4.214-11.053h1.53l-6.299,16.302H435.531z"/>
<path fill="#F68F57" d="M455.958,160.878l-0.375-2.58h-0.12c-0.82,1.05-1.662,1.792-2.527,2.227
	c-0.864,0.435-1.887,0.652-3.066,0.652c-1.6,0-2.845-0.41-3.734-1.229c-0.891-0.82-1.335-1.955-1.335-3.405
	c0-1.589,0.662-2.824,1.987-3.704c1.324-0.88,3.241-1.345,5.751-1.395l3.104-0.09v-1.08c0-1.55-0.314-2.72-0.944-3.509
	c-0.63-0.79-1.645-1.185-3.045-1.185c-1.51,0-3.074,0.42-4.694,1.26l-0.555-1.29c1.79-0.84,3.56-1.26,5.31-1.26
	c1.789,0,3.127,0.465,4.012,1.395s1.327,2.38,1.327,4.349v10.843L455.958,160.878L455.958,160.878z M449.959,159.828
	c1.739,0,3.112-0.497,4.116-1.492c1.005-0.995,1.508-2.377,1.508-4.147v-1.604l-2.85,0.12c-2.29,0.11-3.922,0.467-4.896,1.072
	s-1.462,1.547-1.462,2.827c0,1.02,0.312,1.812,0.937,2.377S448.819,159.828,449.959,159.828z"/>
<path fill="#F68F57" d="M472.44,156.633c0,1.46-0.555,2.582-1.665,3.367c-1.109,0.785-2.685,1.177-4.724,1.177
	c-2.18,0-3.91-0.335-5.189-1.005v-1.604c1.64,0.82,3.369,1.23,5.189,1.23c1.609,0,2.832-0.268,3.666-0.803
	c0.835-0.535,1.253-1.247,1.253-2.137c0-0.819-0.333-1.509-0.997-2.069c-0.665-0.56-1.758-1.11-3.277-1.65
	c-1.63-0.59-2.774-1.097-3.435-1.522s-1.157-0.905-1.492-1.44s-0.502-1.187-0.502-1.957c0-1.22,0.512-2.185,1.537-2.895
	c1.024-0.71,2.457-1.065,4.297-1.065c1.759,0,3.429,0.33,5.009,0.99l-0.555,1.35c-1.6-0.66-3.085-0.99-4.454-0.99
	c-1.33,0-2.385,0.22-3.165,0.66c-0.779,0.44-1.17,1.05-1.17,1.83c0,0.85,0.303,1.53,0.908,2.04c0.604,0.51,1.786,1.08,3.546,1.71
	c1.471,0.53,2.54,1.007,3.21,1.432c0.67,0.425,1.172,0.907,1.507,1.447S472.44,155.903,472.44,156.633z"/>
</svg>
