
<svg version="1.1" id="Layer_1" xmlns="http://www.w3.org/2000/svg" xmlns:xlink="http://www.w3.org/1999/xlink" x="0px" y="0px"
	 viewBox="0 0 439.791 203.623" enable-background="new 0 0 439.791 203.623"
	 xml:space="preserve">
<g>
	<path d="M132.866,184.934c-0.095-0.092-0.192-0.183-0.314-0.242c-1.961-0.952-3.295-2.569-3.958-4.806
		c-1.155-3.88-0.017-8.817,1.715-11.706l76.464-132.468c4.509-7.914,5.133-15.469,1.759-21.271
		c-2.772-4.77-7.998-7.618-13.975-7.618c-10.71,0-21.688,6.575-33.435,20.058c0.961-4.743,0.312-9.144-1.956-12.792
		c-2.831-4.549-7.936-7.265-13.661-7.265c-7.197,0-14.453,2.926-21.923,8.854c0.97-2.337,0.72-5.415-2.136-9.637
		c-7.618-11.264-17.236-3.314-17.236-3.314C87.385,16.055,68.289,20.928,51.441,25.227c-19.857,5.066-37.01,9.444-46.243,25.521
		c-5.373,9.381-6.587,18.419-3.612,26.861C5.26,88.028,14.599,94.883,22.115,97.826c0.11,0.043,0.224,0.054,0.336,0.065
		c1.349,0.767,2.901,1.238,4.578,1.238c5.023,0,9.094-3.943,9.094-8.806c0-3.359-1.964-6.243-4.82-7.728
		c-0.133-0.175-0.295-0.325-0.503-0.41c-0.074-0.03-7.251-3.045-9.442-9.542c-1.329-3.942-0.555-8.412,2.305-13.291
		c5.609-9.698,20.853-13.733,36.993-18.005c8.803-2.33,17.867-4.73,25.754-8.178L19.434,149.437
		c-0.383,0.585-1.003,1.59-1.633,2.835l-0.089,0.154c-0.012,0.021-0.007,0.047-0.018,0.068c-2.131,4.301-4.157,11.164,3.173,13.306
		c8.42,2.46,15.651-5.466,19.871-11.715c0.159-0.106,0.306-0.234,0.404-0.406l1.534-2.673c0.234-0.398,0.452-0.777,0.647-1.127
		l46.998-81.885c22.762-31.604,38.211-42.818,44.523-42.818c1.435,0,1.816,0.66,1.941,0.877c0.693,1.197,0.504,4.086-2.103,8.604
		L67.723,150.761c0,0-9.883,13.731,1.052,16.926c13.41,3.918,23.808-18.512,23.822-18.542l45.39-79.151l0.204-0.22
		c24.966-35.232,40.496-44.633,45.735-44.633c1.442,0,1.826,0.663,1.951,0.882c0.693,1.204,0.494,4.104-2.14,8.635l-71.098,123.526
		c-5.177,9-6.678,19.036-4.118,27.533c1.745,5.798,5.355,10.597,10.486,14.115l-0.07-0.007c0,0,8.233,7.348,15.1,1.6l-0.054-0.006
		c2.46-1.819,4.072-4.659,4.072-7.887C138.054,189.839,135.952,186.652,132.866,184.934z"/>
	<path d="M433.216,107.028c-1.768,0-3.367,0.702-4.549,1.83c-0.037,0.033-0.092,0.036-0.125,0.075l-1.393,1.595
		c-15.995,18.555-34.641,30.545-47.504,30.545c-6.103,0-10.56-1.886-12.548-5.311c-2.322-4.004-1.315-10.032,2.924-17.447
		l1.45-2.611c3.686,1.37,7.926,2.09,12.339,2.09c7.963,0,27.995-2.618,42.007-26.866l2.973-5.158
		c5.418-9.289,6.214-18.214,2.241-25.131c-3.641-6.34-11.047-10.125-19.811-10.125c-16.784,0-30.55,8.458-39.811,24.456
		l-19.954,34.234l-1.169,1.335c-6.108,7.233-13.843,14.418-21.6,20.108c1.941-7.077,3.12-15.252,4.361-23.833
		c2.224-15.405,4.744-32.867,12.381-48.737c0.006-0.013,0.005-0.027,0.01-0.04c9.462-13.127,1.628-18.403-6.513-18.197
		c-6.645,0.168-12.09,9.047-13.986,12.554c-0.857,1.193-1.766,2.462-2.74,3.822c-9.946,13.891-24.978,34.885-40.226,52.73
		c-0.001,0.001-0.001,0.002-0.001,0.003l-1.384,1.58c-17.472,20.269-30.113,30.545-37.575,30.545c-1.162,0-2.681-0.235-3.319-1.351
		c-0.501-0.872-0.902-3.081,2.029-8.087l40.666-71.256c10.24-13.631,2.234-19.075-6.048-18.866
		c-8.282,0.21-14.712,13.967-14.712,13.967l-35.297,61.626c-13.931,12.678-24.939,20.243-29.462,20.243
		c-0.332,0-0.602-0.047-0.83-0.15c-0.926-0.392-1.192-0.928-1.312-1.296c-0.786-2.414,2.02-7.088,3.875-10.182l38.489-67.079
		c10.167-13.585,2.178-19.013-6.091-18.804c-8.282,0.21-14.712,13.967-14.712,13.967l0.02,0.005l-40.122,69.424
		c-6.106,10.601-7.538,20.263-3.929,26.509c2.442,4.227,7.047,6.555,12.963,6.555c11.268,0,23.45-9.604,32.364-17.877
		c-0.12,4.48,1.17,8.516,3.754,11.604c3.437,4.103,8.801,6.273,15.516,6.273c10.156,0,21.968-6.179,35.771-18.737
		c0.052,0.174,0.104,0.353,0.155,0.523c-0.04,0.179-0.057,0.364-0.014,0.552c0.011,0.051,0.388,1.564,1.361,3.663
		c0.006,0.018,0.022,0.063,0.022,0.063l0.006-0.002c2.42,5.18,8.556,13.938,22.475,13.938c1.865,0,3.555-0.168,5.342-0.348
		l0.418-0.048c0.396,0,0.698-0.151,0.762-0.21c15.606-2.062,30.026-11.268,41.341-21.004c0.438,3.046,1.343,5.948,2.853,8.584
		c4.747,8.278,14.273,13.026,26.14,13.026c27.063,0,51.608-23.486,64.161-37.949c1.308-1.193,2.142-2.89,2.142-4.793
		C439.791,109.95,436.847,107.028,433.216,107.028z M391.257,81.398c5.246-9.006,12.226-13.037,16.816-13.037
		c1.442,0,3.383,0.391,4.462,2.252c1.651,2.853,0.631,7.918-2.799,13.893l-2.975,5.155c-7.069,12.016-15.671,14.539-21.644,14.539
		c-2.113-0.001-4.297-0.316-6.391-0.919L391.257,81.398z M313.466,104.294c-2.504,17.279-4.867,33.601-16.833,33.601
		c-5.97,0-8.447-6.451-8.55-6.726c-0.12-0.325-0.375-0.579-0.695-0.713c-0.888-1.838-1.646-3.764-2.245-5.445
		c2.124-2.309,4.279-4.709,6.488-7.279c0.001-0.001,0.001-0.003,0.002-0.004c9.29-10.709,17.695-22.02,24.45-31.109
		c0.226-0.307,0.452-0.611,0.676-0.912C315.313,91.534,314.38,97.989,313.466,104.294z"/>
</g>
</svg>
