<?xml version="1.0" encoding="utf-8"?>
<!-- Generator: Adobe Illustrator 17.0.0, SVG Export Plug-In . SVG Version: 6.00 Build 0)  -->
<!DOCTYPE svg PUBLIC "-//W3C//DTD SVG 1.1//EN" "http://www.w3.org/Graphics/SVG/1.1/DTD/svg11.dtd">
<svg version="1.1" id="Layer_1" xmlns="http://www.w3.org/2000/svg" xmlns:xlink="http://www.w3.org/1999/xlink" x="0px" y="0px"
	 width="473.909px" height="169.141px" viewBox="0 0 473.909 169.141" enable-background="new 0 0 473.909 169.141"
	 xml:space="preserve">
<g>
	<g>
		<g>
			<path fill="#F68F57" d="M98.349,136.89c-0.07-0.068-0.142-0.136-0.232-0.179c-1.451-0.705-2.439-1.901-2.93-3.557
				c-0.855-2.872-0.013-6.526,1.269-8.665l56.6-98.054c3.337-5.858,3.799-11.451,1.302-15.745c-2.052-3.531-5.92-5.639-10.345-5.639
				c-7.928,0-16.054,4.867-24.749,14.847c0.711-3.511,0.231-6.768-1.448-9.469c-2.095-3.367-5.874-5.378-10.112-5.378
				c-5.327,0-10.698,2.166-16.228,6.554c0.718-1.73,0.533-4.009-1.581-7.134c-5.639-8.338-12.758-2.453-12.758-2.453
				c-12.454,9.868-26.589,13.475-39.06,16.657c-14.699,3.75-27.395,6.99-34.23,18.891c-3.978,6.944-4.876,13.634-2.673,19.883
				c2.719,7.712,9.632,12.786,15.195,14.964c0.082,0.032,0.166,0.04,0.249,0.048c0.999,0.568,2.147,0.916,3.389,0.916
				c3.718,0,6.732-2.918,6.732-6.518c0-2.486-1.454-4.621-3.568-5.721c-0.099-0.129-0.218-0.241-0.372-0.304
				c-0.055-0.022-5.367-2.254-6.989-7.063c-0.984-2.918-0.411-6.226,1.706-9.838c4.152-7.178,15.435-10.166,27.382-13.327
				c6.516-1.725,13.226-3.501,19.064-6.054l-49.576,86.064c-0.283,0.433-0.742,1.177-1.209,2.098l-0.066,0.114
				c-0.009,0.016-0.005,0.035-0.014,0.051c-1.578,3.184-3.077,8.264,2.349,9.849c6.232,1.821,11.585-4.046,14.709-8.671
				c0.118-0.079,0.227-0.173,0.299-0.3l1.135-1.978c0.173-0.295,0.334-0.575,0.479-0.835l34.789-60.613
				c16.848-23.394,28.284-31.695,32.957-31.695c1.062,0,1.344,0.488,1.437,0.649c0.513,0.886,0.373,3.025-1.557,6.369
				l-49.564,85.941c0,0-7.315,10.164,0.778,12.529c9.926,2.9,17.623-13.703,17.633-13.725l33.599-58.589l0.151-0.163
				c18.48-26.079,29.976-33.038,33.853-33.038c1.068,0,1.351,0.491,1.444,0.653c0.513,0.891,0.366,3.038-1.584,6.392l-52.628,91.435
				c-3.832,6.662-4.943,14.09-3.048,20.38c1.292,4.292,3.964,7.844,7.762,10.448l-0.051-0.005c0,0,6.094,5.439,11.177,1.184
				l-0.04-0.004c1.821-1.346,3.014-3.449,3.014-5.838C102.19,140.521,100.633,138.162,98.349,136.89z"/>
			<path fill="#F68F57" d="M320.672,79.224c-1.309,0-2.492,0.519-3.367,1.354c-0.028,0.025-0.068,0.027-0.093,0.055l-1.031,1.18
				c-11.84,13.735-25.642,22.61-35.163,22.61c-4.518,0-7.817-1.396-9.288-3.931c-1.719-2.964-0.973-7.426,2.164-12.915l1.073-1.932
				c2.728,1.014,5.867,1.547,9.134,1.547c5.894,0,20.722-1.938,31.094-19.887l2.201-3.818c4.01-6.876,4.6-13.482,1.659-18.603
				c-2.695-4.693-8.177-7.495-14.664-7.495c-12.424,0-22.614,6.261-29.468,18.102l-14.77,25.34l-0.865,0.988
				c-4.521,5.354-10.247,10.672-15.988,14.884c1.437-5.239,2.31-11.29,3.228-17.641c1.646-11.403,3.512-24.329,9.164-36.076
				c0.005-0.01,0.003-0.02,0.008-0.029c7.004-9.717,1.205-13.622-4.821-13.47c-4.919,0.124-8.949,6.697-10.352,9.293
				c-0.634,0.883-1.307,1.822-2.028,2.829c-7.362,10.282-18.489,25.822-29.776,39.031c0,0.001,0,0.002-0.001,0.002l-1.025,1.17
				c-12.933,15.003-22.29,22.61-27.813,22.61c-0.86,0-1.984-0.174-2.457-1c-0.371-0.646-0.668-2.281,1.502-5.986l30.101-52.745
				c7.58-10.09,1.654-14.12-4.477-13.965c-6.13,0.155-10.89,10.339-10.89,10.339l-26.127,45.617
				c-10.312,9.384-18.46,14.984-21.808,14.984c-0.246,0-0.446-0.035-0.615-0.111c-0.686-0.29-0.882-0.687-0.971-0.959
				c-0.582-1.787,1.495-5.247,2.868-7.537l28.49-49.653c7.526-10.056,1.612-14.074-4.508-13.919
				c-6.13,0.155-10.89,10.339-10.89,10.339l0.015,0.004l-29.699,51.388c-4.519,7.847-5.58,14.999-2.908,19.622
				c1.808,3.129,5.216,4.852,9.596,4.852c8.341,0,17.358-7.109,23.956-13.233c-0.089,3.316,0.866,6.304,2.779,8.59
				c2.544,3.037,6.515,4.643,11.485,4.643c7.518,0,16.261-4.573,26.478-13.869c0.038,0.129,0.077,0.262,0.115,0.387
				c-0.03,0.132-0.042,0.269-0.01,0.408c0.008,0.038,0.287,1.158,1.008,2.711c0.005,0.013,0.016,0.047,0.016,0.047l0.005-0.001
				c1.791,3.834,6.333,10.317,16.637,10.317c1.38,0,2.632-0.125,3.954-0.257l0.309-0.035c0.293,0,0.517-0.112,0.564-0.156
				c11.552-1.526,22.226-8.341,30.601-15.547c0.324,2.255,0.994,4.403,2.112,6.354c3.514,6.127,10.565,9.642,19.349,9.642
				c20.032,0,38.201-17.385,47.492-28.091c0.968-0.883,1.586-2.139,1.586-3.548C325.538,81.387,323.36,79.224,320.672,79.224z
				 M289.613,60.252c3.883-6.666,9.05-9.65,12.447-9.65c1.068,0,2.504,0.289,3.303,1.667c1.222,2.112,0.467,5.861-2.072,10.284
				l-2.202,3.816c-5.232,8.894-11.6,10.762-16.021,10.762c-1.564-0.001-3.181-0.234-4.73-0.68L289.613,60.252z M232.031,77.199
				c-1.853,12.79-3.603,24.872-12.46,24.872c-4.419,0-6.253-4.775-6.329-4.979c-0.089-0.24-0.277-0.428-0.514-0.528
				c-0.657-1.361-1.218-2.786-1.662-4.031c1.572-1.709,3.167-3.486,4.803-5.388c0.001-0.001,0.001-0.002,0.001-0.003
				c6.877-7.927,13.098-16.3,18.098-23.027c0.167-0.227,0.335-0.452,0.5-0.675C233.399,67.755,232.708,72.533,232.031,77.199z"/>
		</g>
	</g>
	<text transform="matrix(1 0 0 1 126.0614 160.8775)" fill="#F68F57" font-family="'OpenSans-Light'" font-size="30.7146">the distrcit is your canvas</text>
</g>
</svg>
