<?xml version="1.0" encoding="utf-8"?>
<!-- Generator: Adobe Illustrator 17.0.0, SVG Export Plug-In . SVG Version: 6.00 Build 0)  -->
<!DOCTYPE svg PUBLIC "-//W3C//DTD SVG 1.1//EN" "http://www.w3.org/Graphics/SVG/1.1/DTD/svg11.dtd">
<svg version="1.1" id="Layer_1" xmlns="http://www.w3.org/2000/svg" xmlns:xlink="http://www.w3.org/1999/xlink" x="0px" y="0px"
	 width="791.998px" height="366.688px" viewBox="0 428.658 791.998 366.688" enable-background="new 0 428.658 791.998 366.688"
	 xml:space="preserve">
<g>
	<path fill="#FFFFFF" d="M239.272,761.692c-0.171-0.166-0.346-0.33-0.565-0.436c-3.531-1.714-5.934-4.626-7.128-8.655
		c-2.08-6.987-0.031-15.878,3.088-21.081l137.701-238.556c8.12-14.252,9.244-27.857,3.168-38.306
		c-4.992-8.59-14.403-13.719-25.167-13.719c-19.287,0-39.057,11.841-60.212,36.122c1.731-8.541,0.562-16.467-3.522-23.037
		c-5.098-8.192-14.292-13.083-24.602-13.083c-12.961,0-26.028,5.269-39.48,15.945c1.747-4.209,1.297-9.752-3.847-17.355
		c-13.719-20.285-31.04-5.968-31.04-5.968c-30.299,24.002-64.689,32.777-95.029,40.519c-35.76,9.123-66.65,17.007-83.277,45.96
		c-9.676,16.894-11.862,33.17-6.505,48.373c6.616,18.763,23.435,31.108,36.97,36.408c0.198,0.077,0.403,0.097,0.605,0.117
		c2.429,1.381,5.224,2.229,8.244,2.229c9.046,0,16.377-7.101,16.377-15.858c0-6.049-3.537-11.243-8.68-13.917
		c-0.24-0.315-0.531-0.585-0.906-0.738c-0.133-0.054-13.058-5.484-17.004-17.184c-2.393-7.099-0.999-15.149,4.151-23.935
		c10.101-17.465,37.553-24.731,66.619-32.424c15.853-4.196,32.176-8.518,46.379-14.727L34.998,697.767
		c-0.69,1.053-1.806,2.863-2.941,5.105l-0.16,0.277c-0.022,0.038-0.013,0.085-0.032,0.122c-3.838,7.745-7.486,20.105,5.714,23.962
		c15.163,4.43,28.185-9.844,35.785-21.097c0.286-0.191,0.551-0.421,0.728-0.731l2.763-4.814c0.421-0.717,0.814-1.399,1.165-2.03
		L162.655,551.1c40.991-56.914,68.812-77.109,80.179-77.109c2.584,0,3.27,1.189,3.495,1.579c1.248,2.156,0.908,7.358-3.787,15.495
		L121.959,700.151c0,0-17.798,24.728,1.895,30.481c24.149,7.056,42.875-33.337,42.9-33.391l81.741-142.54l0.367-0.396
		c44.96-63.448,72.927-80.378,82.362-80.378c2.597,0,3.288,1.194,3.513,1.588c1.248,2.168,0.89,7.391-3.854,15.55L202.847,713.519
		c-9.323,16.208-12.026,34.281-7.416,49.583c3.143,10.441,9.644,19.084,18.884,25.419l-0.126-0.013c0,0,14.826,13.233,27.193,2.881
		l-0.097-0.011c4.43-3.276,7.333-8.39,7.333-14.203C248.615,770.525,244.83,764.785,239.272,761.692z"/>
	<path fill="#FFFFFF" d="M780.159,621.394c-3.184,0-6.063,1.264-8.192,3.296c-0.067,0.059-0.166,0.065-0.225,0.135l-2.509,2.872
		c-28.805,33.415-62.383,55.007-85.548,55.007c-10.991,0-19.017-3.396-22.597-9.564c-4.182-7.211-2.368-18.066,5.266-31.42
		l2.611-4.702c6.638,2.467,14.274,3.764,22.221,3.764c14.34,0,50.415-4.715,75.648-48.382l5.354-9.289
		c9.757-16.728,11.19-32.801,4.036-45.257c-6.557-11.417-19.894-18.234-35.677-18.234c-30.226,0-55.016,15.232-71.694,44.042
		l-35.934,61.65l-2.105,2.404c-11,13.026-24.929,25.965-38.898,36.212c3.495-12.745,5.619-27.467,7.854-42.92
		c4.005-27.742,8.543-59.189,22.296-87.768c0.011-0.023,0.009-0.049,0.018-0.072c17.04-23.64,2.932-33.141-11.729-32.77
		c-11.967,0.303-21.772,16.292-25.187,22.608c-1.543,2.148-3.18,4.434-4.934,6.883c-17.911,25.016-44.982,62.823-72.441,94.959
		c-0.002,0.002-0.002,0.004-0.002,0.005l-2.492,2.845c-31.465,36.502-54.229,55.007-67.667,55.007c-2.093,0-4.828-0.423-5.977-2.433
		c-0.902-1.57-1.624-5.548,3.654-14.564l73.234-128.322c18.441-24.547,4.023-34.351-10.892-33.975
		c-14.915,0.378-26.494,25.153-26.494,25.153l-63.565,110.98C382.503,662.376,362.68,676,354.534,676
		c-0.598,0-1.084-0.085-1.495-0.27c-1.668-0.706-2.147-1.671-2.363-2.334c-1.415-4.347,3.638-12.764,6.978-18.336l69.313-120.8
		c18.309-24.465,3.922-34.24-10.969-33.863c-14.915,0.378-26.494,25.153-26.494,25.153l0.036,0.009l-72.254,125.023
		c-10.996,19.091-13.575,36.491-7.076,47.739c4.398,7.612,12.691,11.805,23.344,11.805c20.292,0,42.23-17.295,58.283-32.194
		c-0.216,8.068,2.107,15.336,6.76,20.897c6.19,7.389,15.849,11.297,27.942,11.297c18.29,0,39.561-11.128,64.418-33.743
		c0.094,0.313,0.187,0.636,0.279,0.942c-0.072,0.322-0.103,0.656-0.025,0.994c0.02,0.092,0.699,2.817,2.451,6.596
		c0.011,0.032,0.04,0.113,0.04,0.113l0.011-0.004c4.358,9.328,15.408,25.1,40.474,25.1c3.359,0,6.402-0.303,9.62-0.627l0.753-0.086
		c0.713,0,1.257-0.272,1.372-0.378c28.104-3.713,54.072-20.292,74.449-37.825c0.789,5.485,2.419,10.711,5.138,15.459
		c8.549,14.907,25.704,23.458,47.074,23.458c48.737,0,92.939-42.295,115.545-68.341c2.356-2.148,3.857-5.204,3.857-8.632
		C792,626.656,786.698,621.394,780.159,621.394z M704.597,575.238c9.447-16.219,22.017-23.478,30.283-23.478
		c2.597,0,6.092,0.704,8.035,4.055c2.973,5.138,1.136,14.259-5.041,25.019l-5.358,9.283c-12.73,21.639-28.221,26.183-38.978,26.183
		c-3.805-0.002-7.738-0.569-11.509-1.655L704.597,575.238z M564.507,616.471c-4.509,31.117-8.765,60.511-30.314,60.511
		c-10.751,0-15.212-11.617-15.397-12.113c-0.216-0.585-0.675-1.043-1.252-1.284c-1.599-3.31-2.964-6.778-4.043-9.806
		c3.825-4.158,7.706-8.48,11.684-13.108c0.002-0.002,0.002-0.005,0.004-0.007c16.73-19.285,31.866-39.655,44.031-56.023
		c0.407-0.553,0.814-1.1,1.217-1.642C567.833,593.492,566.153,605.116,564.507,616.471z"/>
</g>
</svg>
