<?xml version="1.0" encoding="utf-8"?>
<!-- Generator: Adobe Illustrator 17.0.0, SVG Export Plug-In . SVG Version: 6.00 Build 0)  -->
<!DOCTYPE svg PUBLIC "-//W3C//DTD SVG 1.1//EN" "http://www.w3.org/Graphics/SVG/1.1/DTD/svg11.dtd">
<svg version="1.1" id="Layer_1" xmlns="http://www.w3.org/2000/svg" xmlns:xlink="http://www.w3.org/1999/xlink" x="0px" y="0px"
	 width="566.332px" height="576.706px" viewBox="0 0 566.332 576.706" enable-background="new 0 0 566.332 576.706"
	 xml:space="preserve">
<g opacity="0.5">
	<g>
		<path fill="#F15D72" d="M376.116,293.311c-5.166,0-10.633-2.077-16.299-4.23c-7.337-2.788-15.653-5.947-25.675-6.164
			c-9.642-0.207-22.396,1.505-33.651,3.018c-21.527,2.894-31.22,3.959-35.36-1.1c-5.765-7.046-3.865-17.887-1.002-30.291
			c0.681-2.95-0.709-6.577-2.32-10.777c-2.285-5.959-5.128-13.375-2.6-21.86c2.243-7.527-1.985-10.949-16.718-18.07
			c-7.161-3.461-10.106-7.64-12.705-11.327c-2.503-3.551-4.666-6.619-11.211-9.633c-9.604-4.424-16.228-4.72-21.55-4.958
			c-2.458-0.11-4.781-0.214-7.05-0.689c-14.713-3.083-28.542-24.022-38.639-39.311c-3.483-5.275-6.492-9.83-8.578-12.184
			c-3.999-4.514-13.373-11.283-22.437-17.829c-9.054-6.538-18.416-13.299-24.095-18.94C85.125,77.939,40.886,30.425,39.008,28.408
			c-1.882-2.021-1.769-5.185,0.253-7.066c2.021-1.881,5.185-1.768,7.066,0.253c0.458,0.493,45.983,49.387,56.947,60.276
			c5.123,5.088,14.162,11.615,22.902,17.928c9.943,7.18,19.334,13.962,24.066,19.304c2.556,2.884,5.745,7.713,9.438,13.305
			c8.625,13.06,21.659,32.795,32.346,35.035c1.476,0.309,3.316,0.392,5.446,0.487c5.868,0.262,13.903,0.622,25.287,5.865
			c8.987,4.14,12.432,9.027,15.201,12.955c2.265,3.212,4.053,5.75,8.883,8.085c12.021,5.811,26.982,13.042,21.949,29.93
			c-1.557,5.224,0.343,10.178,2.354,15.423c2.013,5.25,4.094,10.679,2.727,16.606c-1.489,6.453-3.946,17.101-1.313,21.275
			c3.513,1.058,16.805-0.729,26.601-2.045c11.617-1.56,24.796-3.328,35.199-3.104c11.745,0.254,21.318,3.892,29.01,6.814
			c8.078,3.069,12.803,4.709,15.954,2.712c2.161-1.37,0.705-8.336-0.579-14.482c-1.999-9.568-4.487-21.476,0.148-32.485
			c6.796-16.139,7.243-32.928,1.229-46.061c-4.839-10.564-22.986-30.396-46.573-39.411c-18.959-7.246-30.23-15.534-34.46-25.337
			c-2.641-6.119-2.543-12.704,0.29-19.573c4.292-10.409-0.475-27.518-4.306-41.264c-1.956-7.022-3.805-13.655-4.377-18.959
			c-1.786-16.537,8.604-40.828,9.048-41.854c1.094-2.535,4.031-3.703,6.571-2.607c2.534,1.094,3.702,4.036,2.609,6.571
			c-0.099,0.227-9.789,22.904-8.287,36.815c0.485,4.487,2.226,10.735,4.069,17.35c4.463,16.016,9.521,34.17,3.916,47.761
			c-1.79,4.341-1.905,8.2-0.353,11.799c3.062,7.097,12.768,13.812,28.849,19.958c24.033,9.185,45.36,29.884,52.095,44.588
			c7.178,15.672,6.775,35.393-1.104,54.105c-3.426,8.136-1.381,17.924,0.424,26.559c2.043,9.78,4.156,19.893-3.854,24.973
			C381.936,292.63,379.075,293.311,376.116,293.311z"/>
	</g>
	<g>
		<path fill="#F68E56" d="M385.352,330.582c-1.479,0-3.084-0.162-4.831-0.511c-6.175-1.235-9.604-2.724-12.359-3.919
			c-3.88-1.683-6.016-2.612-15.593-1.517c-4.557,0.521-9.642,1.537-14.56,2.52c-15.446,3.09-30.032,6.002-36.235-3.817
			c-4.993-7.906-1.984-16.197,0.671-23.512c1.492-4.111,2.901-7.994,3.062-11.722c0.054-1.257,0.163-2.789,0.287-4.515
			c0.59-8.18,1.815-25.202-4.034-29.83c-1.938-1.532-5.054-1.642-9.261-0.32c-20.476,6.422-58.585,18.378-97.354,2.872
			c-26.456-10.582-34.71-7.191-37.032-5.243c-3.058,2.566-2.621,8.255-1.717,12.576l0.437,2.072
			c2.933,13.85,6.583,31.087-3.716,40.608c-7.831,7.239-21.743,7.777-42.531,1.639l-4.543-1.341
			c-19.063-5.631-29.534-8.724-32.914-9.17c-1.011,1.191-2.394,2.506-4.987,3.734c-2.147,1.017-3.392,2.275-4.71,3.606
			c-5.417,5.475-10.007,6.903-22.875,0.907c-14.729-6.861-33.009,2.774-33.191,2.874c-2.434,1.306-5.464,0.391-6.77-2.042
			c-1.306-2.434-0.392-5.465,2.042-6.771c0.928-0.497,22.928-12.08,42.143-3.126c5.627,2.623,8.106,3.041,9.194,2.926
			c0.542-0.056,0.872-0.309,2.351-1.803c1.604-1.62,3.8-3.84,7.536-5.609c1.156-0.548,1.435-0.898,1.898-1.479
			c2.905-3.647,6.047-3.759,11.185-2.665c4.914,1.045,13.943,3.712,31.932,9.025l4.542,1.342
			c16.646,4.913,28.027,5.125,32.911,0.608c6.128-5.665,3.13-19.82,0.721-31.194l-0.442-2.095
			c-2.129-10.172-0.421-17.67,5.076-22.284c8.282-6.951,23.713-5.768,47.175,3.617c32.721,13.089,63.947,5.249,90.646-3.128
			c7.557-2.372,13.769-1.692,18.459,2.02c10,7.911,8.626,26.991,7.805,38.391c-0.116,1.615-0.221,3.049-0.271,4.226
			c-0.226,5.264-2.046,10.278-3.652,14.703c-2.475,6.819-3.877,11.18-1.615,14.761c2.531,4.006,15.992,1.315,25.82-0.648
			c5.119-1.023,10.412-2.081,15.385-2.649c11.641-1.331,15.454-0.001,20.708,2.278c2.441,1.06,5.209,2.261,10.34,3.286
			c6.599,1.32,8.057-1.15,12.097-9.922c1.543-3.351,3.292-7.148,5.777-10.835c8.71-12.919,17.688-10.301,32.564-5.958
			c2.897,0.846,6.183,1.804,9.869,2.787c5.09,1.357,8.957,1.288,11.499-0.203c3.424-2.012,4.644-6.824,5.624-10.691
			c0.49-1.934,0.913-3.604,1.617-5.01c3.841-7.683,42.717-35.589,43.104-35.86c7.571-5.3,21.494-24.677,26.22-31.696
			c1.541-2.29,4.649-2.898,6.939-1.355c2.291,1.542,2.897,4.648,1.355,6.939c-1.844,2.74-18.32,26.982-28.78,34.304
			c-13.224,9.256-37.37,28.213-39.92,32.193c-0.223,0.496-0.579,1.903-0.843,2.941c-1.284,5.07-3.227,12.731-10.254,16.858
			c-4.931,2.895-11.37,3.313-19.139,1.242c-3.8-1.013-7.144-1.989-10.094-2.85c-15.182-4.429-16.994-4.691-21.473,1.948
			c-2.032,3.015-3.533,6.275-4.985,9.428C400.324,321.773,396.267,330.581,385.352,330.582z"/>
	</g>
	<g>
		<path fill="#75CFE6" d="M154.671,574.003c-1.874,0-3.671-1.059-4.524-2.865c-1.18-2.497-0.111-5.478,2.385-6.656
			c1.932-0.913,2.219-1.855,2.328-2.211c1.2-3.935-3.801-12.329-7.454-18.46c-2.092-3.512-4.069-6.829-5.339-9.812
			c-1.284-3.016-1.075-6.031,0.588-8.489c4.686-6.925,19.365-6.949,44.903-6.402c5.246,0.113,10.671,0.229,15.775,0.229
			c10.816,0,20.037,2.487,28.173,4.683c13.857,3.738,20.806,5.18,27.271-2.824c4.646-5.752,3.661-7.285,0.398-12.366
			c-3.708-5.774-9.311-14.5-4.658-31.17c4.76-17.058-0.431-21.676-10.774-30.876c-4.779-4.251-10.194-9.068-15.671-16.019
			c-11.374-14.437-10.411-23.311-9.296-33.586c0.755-6.966,1.611-14.86-1-27.135c-3.759-17.669-18.021-31.838-30.604-44.34
			c-8.596-8.54-16.715-16.606-20.978-25.131c-8.694-17.388-10.617-29.544-5.715-36.132c2.063-2.773,6.236-5.779,14.377-4.364
			c4.15,0.722,8.38,2.026,12.857,3.406c13.068,4.028,27.879,8.593,49.8,2.333c22.361-6.387,35.959-6.161,44.094,0.731
			c9.046,7.664,8.685,22.028,7.359,33.687c-0.243,2.138-0.489,4.201-0.727,6.188c-1.431,11.976-2.781,23.287,0.336,25.96
			c1.132,0.971,4.637,2.146,15.413-0.861c28.406-7.929,52.678-3.404,74.674,2.663c11.025,3.047,18.817-4.133,27.838-12.44
			c4.003-3.688,8.143-7.5,12.76-10.521c12.409-8.122,26.85-3.474,38.452,0.264c4.477,1.441,8.705,2.803,12.367,3.355
			c6.701,1.015,14.173,0.611,22.824,0.146c8.487-0.455,18.105-0.973,29.389-0.309c20.661,1.208,36.201-8.462,36.355-8.56
			c2.328-1.477,5.418-0.789,6.897,1.536c1.48,2.326,0.804,5.407-1.518,6.894c-0.736,0.471-18.295,11.526-42.323,10.112
			c-10.722-0.631-20.04-0.129-28.265,0.312c-9.199,0.495-17.144,0.921-24.854-0.243c-4.462-0.675-9.064-2.156-13.938-3.726
			c-10.569-3.402-21.5-6.921-29.911-1.415c-3.927,2.569-7.587,5.94-11.462,9.51c-9.793,9.021-20.889,19.244-37.272,14.726
			c-19.195-5.297-41.968-10.308-69.326-2.671c-12.122,3.382-19.712,3.02-24.609-1.18c-7.171-6.148-5.738-18.141-3.757-34.737
			c0.235-1.968,0.479-4.013,0.721-6.131c1.53-13.463,0.295-21.384-3.888-24.928c-5.173-4.382-16.583-3.972-34.884,1.254
			c-24.775,7.077-41.807,1.826-55.492-2.393c-4.166-1.284-8.101-2.497-11.625-3.11c-2.378-0.415-4.111-0.234-4.642,0.481
			c-1.285,1.726-1.55,9.316,6.637,25.69c3.529,7.059,11.083,14.563,19.081,22.51c13.574,13.485,28.958,28.77,33.337,49.354
			c2.944,13.84,1.955,22.963,1.16,30.293c-1.021,9.41-1.636,15.09,7.21,26.318c4.928,6.256,9.993,10.762,14.462,14.736
			c10.837,9.641,20.197,17.967,13.759,41.035c-3.447,12.353,0.055,17.806,3.441,23.079c3.629,5.652,8.147,12.687-1.034,24.053
			c-10.846,13.43-23.869,9.916-37.655,6.196c-7.536-2.033-16.078-4.338-25.568-4.338c-5.212,0-10.691-0.118-15.99-0.231
			c-11.716-0.255-30.846-0.663-35.764,1.676c1.042,2.248,2.686,5.008,4.417,7.912c5.118,8.591,10.919,18.328,8.428,26.496
			c-0.77,2.523-2.717,6.018-7.621,8.334C156.114,573.849,155.387,574.003,154.671,574.003z"/>
	</g>
	<g>
		<path fill="#FCF5A8" d="M285.462,576.706c-1.222,0-2.447-0.445-3.41-1.345c-5.714-5.333-6.427-15.21-6.019-22.558
			c0.445-8.019,2.481-17.223,5.314-24.021c3.659-8.782,1.502-22.987-5.92-38.972c-4.55-9.801-2.224-18.884,0.026-27.668
			c1.484-5.793,2.885-11.265,2.519-17.126c-0.766-12.26-14.195-18.452-25.325-21.487c-6.225-1.698-9.541-6.869-8.654-13.495
			c0.8-5.971,5.87-14.836,11.947-15.752c2.342-2.442,6.614-14.062,7.024-29.212c0.121-4.473,1.869-8.303,5.057-11.076
			c9.345-8.132,29.647-5.856,49.279-3.657c4.803,0.538,9.34,1.047,13.561,1.384c5.207,0.416,7.553,0.006,8.508-0.287
			c-0.411-1.57-2.095-4.537-3.159-6.412c-1.541-2.716-3.135-5.523-4.015-8.311c-3.668-11.615,0.886-33.029,3.928-44.761
			c1.449-5.592,0.379-16.591-0.565-26.295c-1.469-15.094-2.194-24.605,1.255-29.739l21-31.25l8.301,5.578l-21,31.25
			c-1.612,2.55-0.354,15.472,0.397,23.193c1.075,11.045,2.187,22.467,0.292,29.773c-4.578,17.659-6.139,32.695-4.072,39.239
			c0.562,1.781,1.892,4.122,3.176,6.386c3.069,5.408,6.548,11.536,3.199,16.793c-3.359,5.275-11.405,5.344-18.041,4.812
			c-4.38-0.351-8.993-0.867-13.877-1.415c-15.013-1.682-35.57-3.985-41.602,1.264c-0.726,0.632-1.566,1.635-1.625,3.802
			c-0.425,15.729-5.424,37.716-15.223,38.821c-1.56,1.152-4.199,5.623-3.863,8.425c0.063,0.527,0.113,0.943,1.403,1.295
			c20.478,5.585,31.776,16.136,32.675,30.513c0.465,7.436-1.276,14.233-2.812,20.23c-1.98,7.732-3.69,14.411-0.643,20.976
			c5.054,10.885,12.563,31.469,6.08,47.028c-5.876,14.102-5.847,31.555-1.704,35.422c2.02,1.884,2.128,5.048,0.244,7.066
			C288.134,576.172,286.8,576.706,285.462,576.706z"/>
	</g>
	<g>
		<path fill="#97CF98" d="M493.005,452.668c-0.086,0-0.173-0.002-0.26-0.007c-16.556-0.849-19.375-13.698-21.435-23.08
			c-0.95-4.334-1.849-8.427-3.734-10.814c-1.908-2.42-12.66-0.927-19.085-0.035c-11.803,1.637-24.013,3.332-30.615-3.62
			c-4.945-5.206-6.031-10.937-6.988-15.993c-1.237-6.537-2.407-12.713-11.523-20.057c-7.962-6.414-19.199-2.751-29.109,0.482
			c-9.378,3.057-19.074,6.222-24.005-1.744c-4.244-6.855-0.823-11.292,1.221-13.942c2.463-3.193,5.527-7.167-3.824-23.731
			c-17.43-30.876,0.372-77.313,8.927-99.629c0.636-1.659,1.225-3.192,1.746-4.584c0.748-1.996,1.554-4.008,2.333-5.955
			c2.196-5.487,6.285-15.701,4.396-17.729c-0.386-0.414-4.488-3.811-29.524,4.202c-17.232,5.516-27.495,5.756-33.278,0.784
			c-6.269-5.394-4.803-14.49-3.509-22.516c0.798-4.955,1.703-10.57,0.325-13.228c-2.528-4.875-1.096-8.403-0.018-10.072
			c5.07-7.848,21.794-7.344,48.654-5.868c4.563,0.25,8.874,0.487,12.99,0.642c0.367,0.014,0.733,0.021,1.097,0.021
			c20.624,0,33.178-22.158,41.534-36.907c0.822-1.452,1.606-2.836,2.356-4.128c9.514-16.384,25.978-26.794,26.674-27.229
			c2.342-1.462,5.426-0.751,6.891,1.59c1.463,2.341,0.751,5.426-1.59,6.89c-0.328,0.208-15.137,9.667-23.326,23.771
			c-0.733,1.263-1.5,2.616-2.305,4.036c-9.108,16.075-24.319,42.976-51.708,41.95c-4.202-0.159-8.757-0.409-13.161-0.65
			c-9.278-0.51-18.871-1.039-26.596-0.817c-8.628,0.244-11.717,1.356-12.739,1.917c0.034,0.075,0.075,0.159,0.123,0.252
			c2.899,5.591,1.766,12.622,0.67,19.422c-0.833,5.168-1.869,11.6,0.158,13.344c0.967,0.831,5.533,3.089,23.71-2.727
			c22.292-7.133,34.219-7.578,39.889-1.493c6.212,6.67,2.015,17.157-2.43,28.261c-0.759,1.896-1.544,3.857-2.254,5.75
			c-0.529,1.413-1.126,2.969-1.771,4.653c-8.009,20.89-24.672,64.357-9.556,91.134c11.636,20.612,7.879,28.472,3.034,34.754
			c-0.406,0.526-0.946,1.228-1.13,1.587c0.048,0.152,0.174,0.471,0.492,0.985c0.796,1.285,8.93-1.366,12.402-2.5
			c11.101-3.62,26.302-8.577,38.483,1.238c11.983,9.653,13.698,18.708,15.075,25.983c0.868,4.583,1.495,7.895,4.413,10.967
			c3.066,3.229,13.562,1.771,21.991,0.602c11.752-1.63,22.85-3.169,28.309,3.743c3.311,4.194,4.501,9.62,5.652,14.868
			c2.132,9.711,3.642,14.799,12.179,15.237c2.758,0.142,4.879,2.491,4.737,5.249C497.857,450.595,495.648,452.668,493.005,452.668z"
			/>
	</g>
</g>
</svg>
