<?xml version="1.0" encoding="utf-8"?>
<!-- Generator: Adobe Illustrator 17.0.0, SVG Export Plug-In . SVG Version: 6.00 Build 0)  -->
<!DOCTYPE svg PUBLIC "-//W3C//DTD SVG 1.1//EN" "http://www.w3.org/Graphics/SVG/1.1/DTD/svg11.dtd">
<svg version="1.1" id="Layer_1" xmlns="http://www.w3.org/2000/svg" xmlns:xlink="http://www.w3.org/1999/xlink" x="0px" y="0px"
	 width="208.491px" height="154.145px" viewBox="0 0 208.491 154.145" enable-background="new 0 0 208.491 154.145"
	 xml:space="preserve">
<g>
	<path fill="#75CFE5" d="M6.589,154.145c-0.919,0-1.8-0.519-2.219-1.405c-0.579-1.225-0.055-2.686,1.17-3.265
		c0.947-0.448,1.088-0.91,1.142-1.084c0.589-1.93-1.864-6.047-3.656-9.054c-1.026-1.722-1.996-3.349-2.618-4.813
		c-0.63-1.479-0.527-2.958,0.289-4.164c2.298-3.396,9.498-3.408,22.023-3.14c2.573,0.056,5.234,0.113,7.737,0.113
		c5.305,0,9.827,1.22,13.818,2.297c6.796,1.833,10.204,2.54,13.375-1.385c2.279-2.821,1.796-3.573,0.195-6.065
		c-1.818-2.832-4.566-7.112-2.285-15.287c2.335-8.366-0.211-10.631-5.284-15.143c-2.344-2.085-5-4.448-7.686-7.856
		c-5.578-7.08-5.106-11.433-4.559-16.472c0.37-3.416,0.79-7.288-0.49-13.308c-1.844-8.666-8.839-15.615-15.01-21.747
		c-4.216-4.189-8.198-8.145-10.289-12.326C7.978,11.511,7.035,5.549,9.439,2.318c1.012-1.36,3.058-2.834,7.052-2.14
		c2.036,0.354,4.11,0.994,6.306,1.671c6.409,1.976,13.673,4.214,24.425,1.144C58.188-0.14,64.857-0.029,68.847,3.351
		c4.437,3.759,4.259,10.804,3.609,16.522c-0.119,1.048-0.24,2.06-0.356,3.035c-0.702,5.874-1.364,11.421,0.165,12.732
		c0.555,0.476,2.274,1.053,7.559-0.422c13.932-3.889,25.836-1.67,36.624,1.306c5.407,1.494,9.229-2.027,13.653-6.101
		c1.963-1.809,3.994-3.678,6.258-5.16c6.086-3.984,13.169-1.704,18.859,0.129c2.196,0.707,4.269,1.375,6.066,1.646
		c3.287,0.498,6.951,0.3,11.194,0.072c4.163-0.223,8.88-0.477,14.414-0.151c10.133,0.592,17.755-4.15,17.831-4.198
		c1.142-0.724,2.657-0.387,3.383,0.753c0.726,1.141,0.394,2.652-0.744,3.381c-0.361,0.231-8.973,5.653-20.758,4.96
		c-5.259-0.309-9.829-0.063-13.863,0.153c-4.512,0.243-8.408,0.452-12.19-0.119c-2.188-0.331-4.446-1.058-6.836-1.827
		c-5.184-1.669-10.545-3.394-14.67-0.694c-1.926,1.26-3.721,2.914-5.622,4.664c-4.803,4.424-10.245,9.438-18.281,7.222
		c-9.414-2.598-20.583-5.055-34.001-1.31c-5.945,1.659-9.668,1.481-12.07-0.579c-3.517-3.016-2.814-8.897-1.843-17.037
		c0.115-0.965,0.235-1.968,0.353-3.007c0.751-6.603,0.145-10.488-1.907-12.226c-2.537-2.149-8.133-1.948-17.109,0.615
		c-12.151,3.471-20.505,0.896-27.216-1.173c-2.043-0.63-3.973-1.225-5.701-1.525c-1.166-0.203-2.016-0.115-2.277,0.236
		c-0.63,0.847-0.76,4.569,3.255,12.6c1.731,3.462,5.436,7.143,9.358,11.04c6.657,6.614,14.203,14.11,16.351,24.206
		c1.444,6.788,0.959,11.262,0.569,14.857c-0.501,4.615-0.803,7.401,3.536,12.908c2.417,3.068,4.901,5.278,7.093,7.228
		c5.315,4.728,9.906,8.812,6.748,20.126c-1.69,6.058,0.027,8.733,1.688,11.319c1.78,2.772,3.996,6.222-0.507,11.797
		c-5.32,6.587-11.707,4.863-18.468,3.039c-3.696-0.997-7.885-2.128-12.54-2.128c-2.556,0-5.244-0.058-7.843-0.114
		c-5.746-0.125-15.128-0.325-17.541,0.822c0.511,1.103,1.317,2.456,2.166,3.881c2.51,4.213,5.356,8.989,4.133,12.995
		c-0.378,1.238-1.332,2.951-3.738,4.087C7.297,154.069,6.94,154.145,6.589,154.145z"/>
</g>
</svg>
